<svg height="370" width="545">
<text x="150" y="10" text-anchor="middle" dy=".3em" fill="black" >"A"</text>

<text x="10" y="80" text-anchor="middle" dy=".3em" fill="black" >"B"</text>
<line x1="150" y1="18" x2="10" y2="70" style="stroke:rgb(0,0,0);stroke-width:2"/>
<text x="80" y="80" text-anchor="middle" dy=".3em" fill="black" >"C"</text>
<line x1="150" y1="18" x2="80" y2="70" style="stroke:rgb(0,0,0);stroke-width:2"/>
<text x="150" y="80" text-anchor="middle" dy=".3em" fill="black" >"D"</text>
<line x1="150" y1="18" x2="150" y2="70" style="stroke:rgb(0,0,0);stroke-width:2"/>
<text x="150" y="150" text-anchor="middle" dy=".3em" fill="black" >"D"</text>
<line x1="150" y1="88" x2="150" y2="140" style="stroke:rgb(0,0,0);stroke-width:2"/>
<text x="115" y="220" text-anchor="middle" dy=".3em" fill="black" >"E"</text>
<line x1="150" y1="158" x2="115" y2="210" style="stroke:rgb(0,0,0);stroke-width:2"/>
<text x="185" y="220" text-anchor="middle" dy=".3em" fill="black" >"F"</text>
<line x1="150" y1="158" x2="185" y2="210" style="stroke:rgb(0,0,0);stroke-width:2"/>
<text x="290" y="80" text-anchor="middle" dy=".3em" fill="black" >"G"</text>
<line x1="150" y1="18" x2="290" y2="70" style="stroke:rgb(0,0,0);stroke-width:2"/>
<text x="220" y="150" text-anchor="middle" dy=".3em" fill="black" >"H"</text>
<line x1="290" y1="88" x2="220" y2="140" style="stroke:rgb(0,0,0);stroke-width:2"/>
<text x="290" y="150" text-anchor="middle" dy=".3em" fill="black" >"I"</text>
<line x1="290" y1="88" x2="290" y2="140" style="stroke:rgb(0,0,0);stroke-width:2"/>
<text x="360" y="150" text-anchor="middle" dy=".3em" fill="black" >"J"</text>
<line x1="290" y1="88" x2="360" y2="140" style="stroke:rgb(0,0,0);stroke-width:2"/>
<text x="255" y="220" text-anchor="middle" dy=".3em" fill="black" >"K"</text>
<line x1="360" y1="158" x2="255" y2="210" style="stroke:rgb(0,0,0);stroke-width:2"/>
<text x="325" y="220" text-anchor="middle" dy=".3em" fill="black" >"L"</text>
<line x1="360" y1="158" x2="325" y2="210" style="stroke:rgb(0,0,0);stroke-width:2"/>
<text x="290" y="290" text-anchor="middle" dy=".3em" fill="black" >"M"</text>
<line x1="325" y1="228" x2="290" y2="280" style="stroke:rgb(0,0,0);stroke-width:2"/>
<text x="360" y="290" text-anchor="middle" dy=".3em" fill="black" >"N"</text>
<line x1="325" y1="228" x2="360" y2="280" style="stroke:rgb(0,0,0);stroke-width:2"/>
<text x="325" y="360" text-anchor="middle" dy=".3em" fill="black" >"O"</text>
<line x1="360" y1="298" x2="325" y2="350" style="stroke:rgb(0,0,0);stroke-width:2"/>
<text x="395" y="360" text-anchor="middle" dy=".3em" fill="black" >"P"</text>
<line x1="360" y1="298" x2="395" y2="350" style="stroke:rgb(0,0,0);stroke-width:2"/>
<text x="395" y="220" text-anchor="middle" dy=".3em" fill="black" >"Q"</text>
<line x1="360" y1="158" x2="395" y2="210" style="stroke:rgb(0,0,0);stroke-width:2"/>
<text x="465" y="220" text-anchor="middle" dy=".3em" fill="black" >"R"</text>
<line x1="360" y1="158" x2="465" y2="210" style="stroke:rgb(0,0,0);stroke-width:2"/>
<text x="430" y="290" text-anchor="middle" dy=".3em" fill="black" >"S"</text>
<line x1="465" y1="228" x2="430" y2="280" style="stroke:rgb(0,0,0);stroke-width:2"/>
<text x="500" y="290" text-anchor="middle" dy=".3em" fill="black" >"T"</text>
<line x1="465" y1="228" x2="500" y2="280" style="stroke:rgb(0,0,0);stroke-width:2"/>
<text x="465" y="360" text-anchor="middle" dy=".3em" fill="black" >"U"</text>
<line x1="500" y1="298" x2="465" y2="350" style="stroke:rgb(0,0,0);stroke-width:2"/>
<text x="535" y="360" text-anchor="middle" dy=".3em" fill="black" >"V"</text>
<line x1="500" y1="298" x2="535" y2="350" style="stroke:rgb(0,0,0);stroke-width:2"/>
</svg>
